<svg xmlns="http://www.w3.org/2000/svg" xmlns:xlink="http://www.w3.org/1999/xlink" id="Ebene_1" x="0px" y="0px" viewBox="0 0 257.7 57.8" style="enable-background:new 0 0 257.7 57.8;" xml:space="preserve"><style type="text/css">	.st0{fill:#00B4CD;}</style><path class="st0" d="M0.2,0.4h9.6l7.1,15.7L24,0.4h9.6v24.4h-6.1V7.2h-0.1l-8.2,17.5h-4.7L6.3,7.2H6.3v17.5H0.2V0.4z"></path><path class="st0" d="M39.3,0.4h6.3v24.4h-6.3V0.4z"></path><path class="st0" d="M50.8,8.9c0-1.8,0.2-3.2,0.6-4.4c0.4-1.2,1-2.1,1.8-2.7C54,1.2,54.9,0.7,56,0.5c1.1-0.3,2.4-0.4,3.9-0.4h7.4 c2.2,0,4,0.2,5.3,0.5c1.3,0.3,2.3,0.8,3,1.5c0.7,0.7,1.2,1.6,1.4,2.7c0.2,1.1,0.4,2.6,0.4,4.5H71V8.6c0-0.8-0.2-1.4-0.7-1.8 C69.8,6.5,69,6.4,68,6.4h-6.8c-1.5,0-2.6,0.4-3.1,1.2c-0.5,0.8-0.8,2-0.8,3.7v2.6c0,1.8,0.2,3.1,0.7,3.8c0.5,0.7,1.4,1.1,2.9,1.1 h6.7c0.8,0,1.4,0,1.8-0.1c0.4-0.1,0.8-0.2,1.1-0.4c0.3-0.2,0.5-0.6,0.6-1c0.1-0.4,0.2-1.1,0.2-1.8h6.3v2.3c0,1.1-0.1,2.1-0.3,3 c-0.2,0.9-0.6,1.6-1.1,2.3c-0.5,0.7-1.3,1.2-2.3,1.5S71.5,25,70,25H59.9c-1.5,0-2.8-0.1-3.9-0.4c-1.1-0.3-2-0.7-2.8-1.4 c-0.8-0.6-1.3-1.5-1.8-2.7c-0.4-1.2-0.6-2.6-0.6-4.4V8.9z"></path><path class="st0" d="M82.4,0.4h18.9c1.2,0,2.2,0.2,3,0.5c0.8,0.3,1.4,0.8,1.9,1.4c0.5,0.6,0.8,1.4,1,2.3s0.3,1.9,0.3,3v1.5 c0,1.8-0.2,3.1-0.7,4c-0.5,0.9-1.4,1.6-2.8,2v0.1c0.5,0.1,1,0.3,1.4,0.5c0.4,0.2,0.7,0.5,1.1,0.9c0.3,0.4,0.6,0.9,0.7,1.6 c0.2,0.7,0.3,1.5,0.3,2.4v4.1h-6.3v-2.9c0-1.3-0.2-2.2-0.6-2.7c-0.4-0.5-1-0.7-2-0.7h-9.9v6.3h-6.3V0.4z M88.7,12.4h10.4 c0.8,0,1.4-0.2,1.8-0.6c0.4-0.4,0.5-1.1,0.5-2V9c0-1-0.2-1.7-0.7-2.1c-0.4-0.3-1.2-0.5-2.2-0.5h-9.8V12.4z"></path><path class="st0" d="M112.4,8.9c0-1.8,0.2-3.2,0.6-4.4s1-2.1,1.8-2.7c0.8-0.7,1.7-1.1,2.8-1.4c1.1-0.3,2.4-0.4,3.9-0.4h10.1 c1.5,0,2.8,0.1,3.9,0.4c1.1,0.3,2,0.7,2.8,1.4c0.8,0.6,1.4,1.5,1.8,2.7s0.6,2.6,0.6,4.4v7.3c0,1.8-0.2,3.2-0.6,4.3s-1,2-1.8,2.7 c-0.8,0.7-1.7,1.1-2.8,1.4c-1.1,0.3-2.4,0.4-3.9,0.4h-10.1c-1.5,0-2.8-0.1-3.9-0.4c-1.1-0.3-2-0.7-2.8-1.4c-0.8-0.6-1.3-1.5-1.8-2.7 c-0.4-1.2-0.6-2.6-0.6-4.4V8.9z M118.8,13.9c0,1.8,0.2,3.1,0.7,3.8c0.5,0.7,1.4,1.1,2.9,1.1h8c1.4,0,2.4-0.4,2.9-1.1 c0.5-0.7,0.7-2,0.7-3.8v-2.6c0-1.7-0.3-2.9-0.8-3.7c-0.5-0.8-1.6-1.2-3.1-1.2h-7.3c-1.5,0-2.6,0.4-3.1,1.2c-0.5,0.8-0.8,2-0.8,3.7 V13.9z"></path><path class="st0" d="M143.9,0.4h23.9v6.1H159v18.3h-6.3V6.4h-8.8V0.4z"></path><path class="st0" d="M171.7,0.4h18.9c1.2,0,2.2,0.2,3,0.5c0.8,0.3,1.4,0.8,1.9,1.4c0.5,0.6,0.8,1.4,1,2.3c0.2,0.9,0.3,1.9,0.3,3v1.5 c0,1.8-0.2,3.1-0.7,4c-0.5,0.9-1.4,1.6-2.8,2v0.1c0.5,0.1,1,0.3,1.4,0.5c0.4,0.2,0.7,0.5,1.1,0.9c0.3,0.4,0.6,0.9,0.7,1.6 c0.2,0.7,0.3,1.5,0.3,2.4v4.1h-6.3v-2.9c0-1.3-0.2-2.2-0.6-2.7c-0.4-0.5-1-0.7-2-0.7h-9.9v6.3h-6.3V0.4z M177.9,12.4h10.4 c0.8,0,1.4-0.2,1.8-0.6c0.4-0.4,0.5-1.1,0.5-2V9c0-1-0.2-1.7-0.7-2.1c-0.4-0.3-1.2-0.5-2.2-0.5h-9.8V12.4z"></path><path class="st0" d="M229.4,8.9c0-1.8,0.2-3.2,0.6-4.4s1-2.1,1.8-2.7c0.8-0.7,1.7-1.1,2.8-1.4c1.1-0.3,2.4-0.4,3.9-0.4h7.4 c2.2,0,4,0.2,5.3,0.5c1.3,0.3,2.3,0.8,3,1.5c0.7,0.7,1.2,1.6,1.4,2.7c0.2,1.1,0.4,2.6,0.4,4.5h-6.3V8.6c0-0.8-0.2-1.4-0.7-1.8 c-0.5-0.3-1.2-0.5-2.2-0.5h-6.8c-1.5,0-2.6,0.4-3.1,1.2c-0.5,0.8-0.8,2-0.8,3.7v2.6c0,1.8,0.2,3.1,0.7,3.8c0.5,0.7,1.4,1.1,2.9,1.1 h6.7c0.8,0,1.4,0,1.8-0.1c0.4-0.1,0.8-0.2,1.1-0.4c0.3-0.2,0.5-0.6,0.6-1c0.1-0.4,0.2-1.1,0.2-1.8h6.3v2.3c0,1.1-0.1,2.1-0.3,3 s-0.6,1.6-1.1,2.3c-0.5,0.7-1.3,1.2-2.3,1.5s-2.3,0.6-3.8,0.6h-10.1c-1.5,0-2.8-0.1-3.9-0.4c-1.1-0.3-2-0.7-2.8-1.4 c-0.8-0.6-1.3-1.5-1.8-2.7c-0.4-1.2-0.6-2.6-0.6-4.4V8.9z"></path><path class="st0" d="M219.2,0.4C219.2,0.4,219.2,0.4,219.2,0.4L219.2,0.4H215h-0.5h-7.1v0c0,0,0,0,0,0c-3.5,0-6.4,3.4-6.4,7.6v16.9 h6v-6.5h7.5h0.5h4.6v6.5h6V8C225.6,3.8,222.7,0.4,219.2,0.4z M219.6,8v4.4H215h-0.5h-7.6V8c0,0,0-0.1,0-0.1c0-1.3,0.9-2.4,2-2.4h5.6 h0.5h2.7C218.7,5.6,219.6,6.6,219.6,8C219.6,8,219.6,8,219.6,8z"></path><g>	<g>		<path class="st0" d="M253.7,44.8c2.7-2.5,2.8-6.6,0.4-9.3c-1.2-1.4-3-2.1-4.8-2.1H240v2.4h6.3c2.3,0,4.1,1.9,4.1,4.1   c0,2.3-1.9,4.1-4.1,4.1H240v2.4h7.3c2.4,0,4.4,2,4.4,4.4c0,2.4-2,4.4-4.4,4.4H240v2.4h10.7c3.8,0,6.8-3.1,6.8-6.8   C257.5,48.3,256,46,253.7,44.8z"></path>		<path class="st0" d="M233.1,56.8c0,0.5,0.4,1,1,1h4.9V44.1l-5.8-8.9V56.8z"></path>		<polygon class="st0" points="239,42.3 239,33.4 233.1,33.4   "></polygon>	</g>	<g>		<polygon class="st0" points="218.7,40.7 211.6,40.6 210.9,44.5 217.9,44.5   "></polygon>		<path class="st0" d="M200.2,33.4v24.4h27.9V33.4H200.2z M224.9,47.6h-6.4l6.3,6h-8.5l-6.2-6l-1.3,6h-7.6l3.5-16.2h22.6L224.9,47.6   z"></path>	</g>	<g>		<rect x="142.8" y="32.3" class="st0" width="2.9" height="2.8"></rect>		<rect x="147.7" y="32.5" class="st0" width="2.6" height="2.5"></rect>		<rect x="152.7" y="32.6" class="st0" width="2.4" height="2.2"></rect>		<rect x="157.7" y="32.8" class="st0" width="2" height="1.9"></rect>		<rect x="162.6" y="32.9" class="st0" width="1.7" height="1.7"></rect>		<rect x="167.6" y="33" class="st0" width="1.4" height="1.4"></rect>		<rect x="147.9" y="37.3" class="st0" width="2.4" height="2.3"></rect>		<rect x="152.8" y="37.4" class="st0" width="2" height="2"></rect>		<rect x="157.8" y="37.6" class="st0" width="1.8" height="1.7"></rect>		<rect x="162.8" y="37.7" class="st0" width="1.4" height="1.4"></rect>		<rect x="148.1" y="42.1" class="st0" width="2" height="1.9"></rect>		<rect x="153" y="42.2" class="st0" width="1.7" height="1.7"></rect>		<rect x="157.9" y="42.4" class="st0" width="1.5" height="1.4"></rect>		<rect x="148.2" y="46.9" class="st0" width="1.8" height="1.7"></rect>		<rect x="153.2" y="47" class="st0" width="1.4" height="1.4"></rect>		<rect x="148.4" y="51.6" class="st0" width="1.5" height="1.4"></rect>		<rect x="143" y="37.1" class="st0" width="2.6" height="2.5"></rect>		<rect x="143.1" y="42" class="st0" width="2.3" height="2.2"></rect>		<rect x="143.2" y="46.8" class="st0" width="2" height="2"></rect>		<rect x="143.3" y="51.6" class="st0" width="1.7" height="1.7"></rect>		<rect x="143.5" y="56.4" class="st0" width="1.5" height="1.4"></rect>		<path class="st0" d="M191.6,33.4l-12.4,15.4c-0.4-1.9-1.2-13-1.2-14c0-1.1-0.2-1.4-0.2-1.4h-4.5c0,0-15.7,14.7-18.3,17.4   c-4.2,4.3-5.3,6.9-5.3,6.9h6.4c0.2-0.2,0.2-1.1,4.2-5.2c5.3-5.6,13.5-12.3,13.5-12.3c-0.1,0.2,0.8,9.2,0.9,11   c0.2,1.8,0.5,4.2,0.5,4.2h3.8c3.1-4,11.2-13.8,11.2-13.8l-1.3,16h5c0.6-10.4,1.3-18.7,1.4-20.3c0.2-1.6,0.5-4,0.5-4H191.6z"></path>	</g></g></svg>